<?xml version="1.0" standalone="no"?><!-- Generator: Gravit.io --><svg xmlns="http://www.w3.org/2000/svg" xmlns:xlink="http://www.w3.org/1999/xlink" style="isolation:isolate" viewBox="0 0 184.303 184.303" width="184.303" height="184.303"><defs><clipPath id="_clipPath_kgnuhqvG35xf38UC2NoObbGy6r5D9DXJ"><rect width="184.303" height="184.303"/></clipPath></defs><g clip-path="url(#_clipPath_kgnuhqvG35xf38UC2NoObbGy6r5D9DXJ)"><g id="Group"><path d=" M 92.148 21.577 C 131.058 21.577 162.726 53.237 162.726 92.155 C 162.726 131.073 131.058 162.726 92.148 162.726 C 53.237 162.726 21.577 131.058 21.577 92.148 C 21.577 53.237 53.237 21.577 92.148 21.577 Z  M 92.148 0 C 41.255 0 0 41.255 0 92.148 C 0 143.041 41.255 184.303 92.148 184.303 C 143.041 184.303 184.303 143.041 184.303 92.148 C 184.303 41.255 143.041 0 92.148 0 Z " fill="rgb(33,150,243)"/><path d=" M 147.334 92.148 C 147.334 86.88 151.611 82.604 156.879 82.604 C 162.146 82.604 166.423 86.88 166.423 92.148 C 166.423 97.415 162.146 101.692 156.879 101.692 C 151.611 101.692 147.334 97.415 147.334 92.148 Z " fill="rgb(33,150,243)"/><path d=" M 17.873 92.148 C 17.873 86.88 22.149 82.604 27.417 82.604 C 32.685 82.604 36.961 86.88 36.961 92.148 C 36.961 97.415 32.685 101.692 27.417 101.692 C 22.149 101.692 17.873 97.415 17.873 92.148 Z " fill="rgb(33,150,243)"/><path d=" M 82.604 156.879 C 82.604 151.611 86.88 147.334 92.148 147.334 C 97.415 147.334 101.692 151.611 101.692 156.879 C 101.692 162.146 97.415 166.423 92.148 166.423 C 86.88 166.423 82.604 162.146 82.604 156.879 Z " fill="rgb(33,150,243)"/><path d=" M 82.604 27.417 C 82.604 22.149 86.88 17.873 92.148 17.873 C 97.415 17.873 101.692 22.149 101.692 27.417 C 101.692 32.685 97.415 36.961 92.148 36.961 C 86.88 36.961 82.604 32.685 82.604 27.417 Z " fill="rgb(33,150,243)"/><path d=" M 80.532 80.518 L 54.007 130.289 L 103.778 103.771 L 130.296 54 L 80.532 80.518 Z  M 92.148 101.196 C 88.856 101.289 85.773 99.585 84.1 96.749 C 82.426 93.912 82.426 90.391 84.1 87.554 C 85.773 84.718 88.856 83.014 92.148 83.107 C 97.044 83.245 100.941 87.254 100.941 92.151 C 100.941 97.049 97.044 101.058 92.148 101.196 Z " fill="rgb(33,150,243)"/></g></g></svg>