<?xml version="1.0" standalone="no"?><!-- Generator: Gravit.io --><svg xmlns="http://www.w3.org/2000/svg" xmlns:xlink="http://www.w3.org/1999/xlink" style="isolation:isolate" viewBox="0 0 40 38.766" width="40" height="38.766"><defs><clipPath id="_clipPath_oVDT5AZi4l79YsnRf86jgSpmlluNXpDZ"><rect width="40" height="38.766"/></clipPath></defs><g clip-path="url(#_clipPath_oVDT5AZi4l79YsnRf86jgSpmlluNXpDZ)"><rect width="40" height="38.766" style="fill:rgb(110,198,255)" fill-opacity="0"/><g style="isolation:isolate"/><g style="isolation:isolate"><g><path d=" M 17.308 0.171 C 14.29 2.561 12.133 8.798 12.133 16.108 C 12.133 25.472 15.671 33.075 20.029 33.075 C 24.387 33.075 27.926 25.472 27.926 16.108 C 27.926 8.597 25.649 2.219 22.497 0 Q 19.84 3.623 19.816 3.623 C 18.858 2.308 17.98 1.102 17.308 0.171 Z " fill="rgb(255,177,187)"/><path d=" M 34.032 35.444 C 35.064 31.765 33.159 25.563 28.894 19.798 C 23.431 12.413 16.151 8.521 12.647 11.113 C 9.143 13.705 10.734 21.805 16.198 29.19 C 20.58 35.114 26.131 38.79 29.961 38.665 Q 29.982 34.228 30.002 34.213 C 31.539 34.681 32.948 35.11 34.032 35.444 Z " fill="rgb(255,177,187)"/><path d=" M 10.74 38.766 C 14.557 38.575 19.832 34.798 23.942 28.921 C 29.208 21.394 30.584 13.255 27.013 10.757 C 23.442 8.259 16.267 12.342 11.002 19.869 C 6.778 25.907 5.057 32.339 6.392 35.93 Q 10.607 34.54 10.626 34.553 C 10.672 36.16 10.713 37.633 10.74 38.766 Z " fill="rgb(255,177,187)"/><path d=" M 1.711 12.65 C 4.85 10.47 11.333 10.24 18.177 12.382 C 26.944 15.127 33.004 20.732 31.702 24.891 C 30.4 29.05 22.225 30.199 13.458 27.454 C 6.426 25.252 1.136 21.21 0 17.551 Q 4.186 16.078 4.193 16.055 C 3.248 14.755 2.381 13.564 1.711 12.65 Z " fill="rgb(255,177,187)"/><path d=" M 40 17.144 C 38.763 20.759 33.676 24.785 26.892 27.113 C 18.203 30.095 10.001 29.17 8.586 25.048 C 7.171 20.925 13.077 15.158 21.766 12.176 C 28.735 9.784 35.392 9.906 38.475 12.181 Q 35.975 15.848 35.983 15.871 C 37.514 16.358 38.918 16.804 40 17.144 Z " fill="rgb(255,177,187)"/><g><g><ellipse vector-effect="non-scaling-stroke" cx="16.27532603210526" cy="14.44804326091659" rx="2.541764527561017" ry="3.558470338585428" fill="rgb(167,123,202)"/><polygon points="16.28,11.75,17.142,31.109,15.408,31.108" fill="rgb(167,123,202)"/></g><g><ellipse vector-effect="non-scaling-stroke" cx="16.27532603210526" cy="14.44804326091659" rx="2.541764527561017" ry="3.558470338585428" fill="rgb(167,123,202)"/><polygon points="16.28,11.75,17.142,31.109,15.408,31.108" fill="rgb(167,123,202)"/></g></g><g><g><g><ellipse vector-effect="non-scaling-stroke" cx="16.27532603210526" cy="14.44804326091659" rx="2.541764527561017" ry="3.558470338585428" fill="rgb(167,123,202)"/><polygon points="16.28,11.75,17.142,31.109,15.408,31.108" fill="rgb(167,123,202)"/></g><g><ellipse vector-effect="non-scaling-stroke" cx="16.27532603210526" cy="14.44804326091659" rx="2.541764527561017" ry="3.558470338585428" fill="rgb(167,123,202)"/><polygon points="16.28,11.75,17.142,31.109,15.408,31.108" fill="rgb(167,123,202)"/></g><g><polygon points="21.831,11.75,22.336,31.115,21.32,31.114" fill="rgb(167,123,202)"/><polygon points="24.568,11.75,25.074,31.115,24.057,31.114" fill="rgb(167,123,202)"/></g></g><rect x="21.711" y="10.89" width="0.313" height="20.219" transform="matrix(1,0,0,1,0,0)" fill="rgb(167,123,202)"/><rect x="24.448" y="10.89" width="0.313" height="20.219" transform="matrix(1,0,0,1,0,0)" fill="rgb(167,123,202)"/></g><rect x="20.068" y="13.627" width="6.257" height="1.721" transform="matrix(1,0,0,1,0,0)" fill="none" vector-effect="non-scaling-stroke" stroke-width="1.1" stroke="rgb(167,123,202)" stroke-linejoin="miter" stroke-linecap="square" stroke-miterlimit="3"/></g></g></g></svg>