<?xml version="1.0" standalone="no"?><!-- Generator: Gravit.io --><svg xmlns="http://www.w3.org/2000/svg" xmlns:xlink="http://www.w3.org/1999/xlink" style="isolation:isolate" viewBox="0 0 300 343.745" width="300" height="343.745"><defs><clipPath id="_clipPath_hOjVIyIxFn10bAzfoSiFY4FgYWVyoiNy"><rect width="300" height="343.745"/></clipPath></defs><g clip-path="url(#_clipPath_hOjVIyIxFn10bAzfoSiFY4FgYWVyoiNy)"><g id="Group"><path d=" M 129.809 1.286 C 107.171 19.206 90.997 65.983 90.997 120.812 C 90.997 191.043 117.534 248.061 150.22 248.061 C 182.906 248.061 209.443 191.043 209.443 120.812 C 209.443 64.477 192.368 16.643 168.725 0 Q 148.8 27.176 148.619 27.176 C 141.433 17.313 134.852 8.264 129.809 1.286 Z " fill="rgb(255,177,187)"/><path d=" M 255.239 265.831 C 262.983 238.234 248.694 191.724 216.705 148.483 C 175.73 93.095 121.13 63.909 94.852 83.348 C 68.575 102.787 80.508 163.538 121.483 218.926 C 154.351 263.355 195.986 290.925 224.704 289.989 Q 224.866 256.707 225.012 256.599 C 236.543 260.104 247.113 263.327 255.239 265.831 Z " fill="rgb(255,177,187)"/><path d=" M 80.553 290.745 C 109.18 289.315 148.737 260.985 179.568 216.911 C 219.061 160.456 229.379 99.411 202.596 80.675 C 175.813 61.939 122.006 92.562 82.513 149.017 C 50.835 194.302 37.928 242.54 47.942 269.471 Q 79.55 259.047 79.699 259.151 C 80.041 271.198 80.345 282.244 80.553 290.745 Z " fill="rgb(255,177,187)"/><path d=" M 12.831 94.872 C 36.373 78.521 84.997 76.797 136.328 92.868 C 202.078 113.454 247.53 155.492 237.763 186.684 C 227.997 217.877 166.688 226.489 100.938 205.903 C 48.197 189.39 8.517 159.075 0 131.633 Q 31.396 120.584 31.45 120.412 C 24.363 110.663 17.858 101.73 12.831 94.872 Z " fill="rgb(255,177,187)"/><path d=" M 300 128.576 C 290.72 155.695 252.567 185.889 201.692 203.35 C 136.526 225.715 75.005 218.772 64.395 187.857 C 53.785 156.941 98.077 113.683 163.243 91.318 C 215.515 73.379 265.442 74.296 288.561 91.358 Q 269.812 118.859 269.871 119.03 C 281.355 122.686 291.888 126.029 300 128.576 Z " fill="rgb(255,177,187)"/><g id="Group"><g id="Group"><g id="Group"><path d=" M 105.22 116.753 C 105.22 102.715 113.361 91.318 123.388 91.318 C 133.415 91.318 141.555 102.715 141.555 116.753 C 141.555 130.791 133.415 142.188 123.388 142.188 C 113.361 142.188 105.22 130.791 105.22 116.753 Z " fill="rgb(167,123,202)"/><polygon points="123.418,97.468,129.585,235.839,117.19,235.836" fill="rgb(167,123,202)"/></g><g id="Group"><path d=" M 105.22 116.753 C 105.22 102.715 113.361 91.318 123.388 91.318 C 133.415 91.318 141.555 102.715 141.555 116.753 C 141.555 130.791 133.415 142.188 123.388 142.188 C 113.361 142.188 105.22 130.791 105.22 116.753 Z " fill="rgb(167,123,202)"/><polygon points="123.418,97.468,129.585,235.839,117.19,235.836" fill="rgb(167,123,202)"/></g></g><g id="Group"><g id="Group"><g id="Group"><path d=" M 105.22 116.753 C 105.22 102.715 113.361 91.318 123.388 91.318 C 133.415 91.318 141.555 102.715 141.555 116.753 C 141.555 130.791 133.415 142.188 123.388 142.188 C 113.361 142.188 105.22 130.791 105.22 116.753 Z " fill="rgb(167,123,202)"/><polygon points="123.418,97.468,129.585,235.839,117.19,235.836" fill="rgb(167,123,202)"/></g><g id="Group"><path d=" M 105.22 116.753 C 105.22 102.715 113.361 91.318 123.388 91.318 C 133.415 91.318 141.555 102.715 141.555 116.753 C 141.555 130.791 133.415 142.188 123.388 142.188 C 113.361 142.188 105.22 130.791 105.22 116.753 Z " fill="rgb(167,123,202)"/><polygon points="123.418,97.468,129.585,235.839,117.19,235.836" fill="rgb(167,123,202)"/></g><g id="Group"><polygon points="163.095,97.468,166.711,235.882,159.443,235.879" fill="rgb(167,123,202)"/><polygon points="182.66,97.468,186.276,235.882,179.009,235.879" fill="rgb(167,123,202)"/></g></g><rect x="162.239" y="91.318" width="2.236" height="144.521" transform="matrix(1,0,0,1,0,0)" fill="rgb(167,123,202)"/><rect x="181.804" y="91.318" width="2.236" height="144.521" transform="matrix(1,0,0,1,0,0)" fill="rgb(167,123,202)"/></g><rect x="150.499" y="110.884" width="44.72" height="12.298" transform="matrix(1,0,0,1,0,0)" fill="none" vector-effect="non-scaling-stroke" stroke-width="3.354" stroke="rgb(167,123,202)" stroke-linejoin="miter" stroke-linecap="square" stroke-miterlimit="3"/></g></g></g></svg>