<?xml version="1.0" standalone="no"?><!-- Generator: Gravit.io --><svg xmlns="http://www.w3.org/2000/svg" xmlns:xlink="http://www.w3.org/1999/xlink" style="isolation:isolate" viewBox="0 0 190 190" width="190" height="190"><defs><clipPath id="_clipPath_NsLXb6SwuQjP3dnTpUx4aKuxPuaeP5ry"><rect width="190" height="190"/></clipPath></defs><g clip-path="url(#_clipPath_NsLXb6SwuQjP3dnTpUx4aKuxPuaeP5ry)"><g id="Group"><path d=" M 81.1 3.803 C 66.956 14.999 56.851 44.223 56.851 78.479 C 56.851 122.356 73.43 157.979 93.851 157.979 C 114.272 157.979 130.851 122.356 130.851 78.479 C 130.851 43.283 120.184 13.398 105.413 3 Q 92.964 19.979 92.851 19.979 C 88.362 13.817 84.25 8.163 81.1 3.803 Z " fill="rgb(255,177,187)"/><path d=" M 159.463 169.08 C 164.301 151.839 155.374 122.782 135.388 95.766 C 109.789 61.162 75.677 42.928 59.26 55.073 C 42.843 67.217 50.298 105.172 75.898 139.776 C 96.433 167.534 122.444 184.758 140.386 184.174 Q 140.487 163.38 140.578 163.313 C 147.783 165.503 154.386 167.516 159.463 169.08 Z " fill="rgb(255,177,187)"/><path d=" M 50.326 184.646 C 68.211 183.753 92.925 166.053 112.187 138.517 C 136.86 103.247 143.307 65.108 126.574 53.402 C 109.841 41.697 76.224 60.829 51.551 96.1 C 31.759 124.392 23.696 154.529 29.952 171.355 Q 49.7 164.842 49.792 164.907 C 50.006 172.434 50.196 179.335 50.326 184.646 Z " fill="rgb(255,177,187)"/><path d=" M 8.017 62.272 C 22.724 52.057 53.103 50.98 85.172 61.02 C 126.25 73.881 154.646 100.145 148.545 119.633 C 142.443 139.121 104.14 144.501 63.062 131.64 C 30.112 121.323 5.321 102.384 0 85.239 Q 19.615 78.336 19.648 78.229 C 15.221 72.138 11.157 66.557 8.017 62.272 Z " fill="rgb(255,177,187)"/><path d=" M 187.428 83.329 C 181.63 100.272 157.794 119.136 126.009 130.045 C 85.296 144.017 46.86 139.68 40.231 120.365 C 33.603 101.05 61.275 74.025 101.988 60.052 C 134.645 48.844 165.838 49.417 180.281 60.077 Q 168.568 77.258 168.604 77.365 C 175.779 79.649 182.36 81.738 187.428 83.329 Z " fill="rgb(255,177,187)"/></g></g></svg>